<svg id="Layer_1" data-name="Layer 1" xmlns="http://www.w3.org/2000/svg" viewBox="0 0 294.14 294.16"><path d="M297.08,156.16c-3.72.29-10.15.48-16.49,1.32A138.87,138.87,0,0,0,240.47,169c-29.2,13.45-51.68,34.17-67.21,62.37a141.74,141.74,0,0,0-17.58,64.85c-.48,15.24,1.15,30.27,5.86,44.84,2.7,8.37,5.85,16.61,8.53,25a34.08,34.08,0,0,1,.83,18.47,51.59,51.59,0,0,1-8.17,17.25,41.34,41.34,0,0,0-6.6,14.65c-1.91,8.64,2.23,18.58,9.93,22.94,7.51,4.26,15.69,5.29,24.12,4.93a85.46,85.46,0,0,0,36.67-10.33,18.72,18.72,0,0,1,17.21-.78A137.81,137.81,0,0,0,290.21,444,144.19,144.19,0,0,0,443.4,309.67a144,144,0,0,0-54-122C363.2,166.88,333.21,156.55,297.08,156.16Zm0,0c36.13.39,66.12,10.72,92.31,31.48a143.89,143.89,0,0,1,23,202.21A144.27,144.27,0,0,1,290.21,444a137.81,137.81,0,0,1-46.15-10.9,18.72,18.72,0,0,0-17.21.78,85.46,85.46,0,0,1-36.67,10.33c-8.43.36-16.61-.67-24.12-4.93-7.7-4.36-11.84-14.3-9.93-22.94a41.34,41.34,0,0,1,6.6-14.65,51.59,51.59,0,0,0,8.17-17.25,34.08,34.08,0,0,0-.83-18.47c-2.68-8.38-5.83-16.62-8.53-25-4.71-14.57-6.34-29.6-5.86-44.84a141.74,141.74,0,0,1,17.58-64.85c15.53-28.2,38-48.92,67.21-62.37a138.87,138.87,0,0,1,40.12-11.47C286.93,156.64,293.36,156.45,297.08,156.16Z" transform="translate(-152.6 -153.16)"/><path d="M299.58,447.32c-3.17,0-6.35-.1-9.56-.3a140.79,140.79,0,0,1-47.14-11.14,15.83,15.83,0,0,0-14.63.68,89,89,0,0,1-37.95,10.68c-10.37.44-18.55-1.25-25.72-5.32s-11.92-12.72-11.91-21.29a22.58,22.58,0,0,1,.53-4.91,44.09,44.09,0,0,1,6-14c.51-.81.35-.51,1.1-1.66a64.88,64.88,0,0,0,6.71-13,29.68,29.68,0,0,0,1-3.28,30.82,30.82,0,0,0,.69-4.26c.08-.9.13-1.81.13-2.72a32.23,32.23,0,0,0-1.59-9.88c-1.36-4.28-2.88-8.6-4.35-12.78-1.4-4-2.85-8.11-4.18-12.21a130.56,130.56,0,0,1-6.08-40.62c0-1.73,0-3.47.08-5.24a145.4,145.4,0,0,1,17.95-66.2c15.7-28.5,38.78-49.92,68.58-63.64a142.48,142.48,0,0,1,41-11.73c4.71-.62,9.35-.89,13.09-1.1,1.35-.08,2.55-.15,3.56-.23h.26c36.57.4,67.37,10.91,94.15,32.13a147.21,147.21,0,0,1,55.48,114.53q0,5-.35,10.05A147.17,147.17,0,0,1,299.58,447.32ZM236.2,428.4a22.82,22.82,0,0,1,9.05,2A134.87,134.87,0,0,0,290.4,441a141.2,141.2,0,0,0,150-131.57q.33-4.83.33-9.63A141.16,141.16,0,0,0,387.53,190c-25.67-20.34-55.22-30.42-90.36-30.83-1,.08-2.2.15-3.53.22-3.64.22-8.16.48-12.66,1.07a136.53,136.53,0,0,0-39.26,11.23,141.33,141.33,0,0,0-83,124.58c-.05,1.71-.08,3.39-.08,5.06a124.76,124.76,0,0,0,5.79,38.77c1.31,4,2.74,8.11,4.13,12.06,1.48,4.22,3,8.59,4.41,12.94a38.59,38.59,0,0,1,1.87,11.7,36.08,36.08,0,0,1-1,8.38c-1.41,5.94-4.14,11.74-8.61,18.25a38.06,38.06,0,0,0-6.14,13.6,16.77,16.77,0,0,0-.39,3.61c0,6.43,3.49,13,8.87,16.07,6.15,3.49,13.3,4.93,22.51,4.54a82.7,82.7,0,0,0,35.39-10A22.84,22.84,0,0,1,236.2,428.4Z" transform="translate(-152.6 -153.16)"/><path d="M443.74,300.23A144.07,144.07,0,0,1,299.67,444.3c-69,0-117.34-58.18-127.77-77.51-.59-1.09-1.19-2.26-1.19-2.26s-16.5-29.15-15.11-64.3c2.46-62,55.3-144.07,144.07-144.07A144.07,144.07,0,0,1,443.74,300.23Z" transform="translate(-152.6 -153.16)"/><path d="M156.35,423.13c5.63-5.61,14.49-14.09,26-23.66,23.47-19.52,47.78-39.73,57.25-33.88,2,1.21,10.14,7.76-3.8,52" transform="translate(-152.6 -153.16)"/><path d="M210.1,440.36l-33,2.05" transform="translate(-152.6 -153.16)"/><path d="M221.2,436.27c25-8,27.87-8.41,28-10.51.65-8.36-43-28.64-59.59-12.27-8.34,8.22-9.41,25.23-2.92,30.38C190.39,446.78,195,444.71,221.2,436.27Z" transform="translate(-152.6 -153.16)"/><path d="M169.2,390.71c1.92,4.73,7.16,16,15.19,16.94,10.15,1.16,23.67-14.35,28.63-40.89" transform="translate(-152.6 -153.16)"/><path d="M187.31,369.68c-9.48,1.82-19.28,10.55-17.52,17.52,1.42,5.63,10.08,9,16.94,8.18C198.15,394,207,380.48,204,374.06,201.69,369.29,192.91,368.6,187.31,369.68Z" transform="translate(-152.6 -153.16)"/><path d="M171.25,376.69c4.68,7.45,13.49,13.75,15.77,12,4.38-3.41-13.31-38.07-18.5-36.51C165.53,353,164.84,366.47,171.25,376.69Z" transform="translate(-152.6 -153.16)"/><path d="M170.07,366" transform="translate(-152.6 -153.16)"/><path d="M180.89,372.6" transform="translate(-152.6 -153.16)"/><path d="M173,441.53c-15.5-19.71-17.51-26.34-15.77-28.33.72-.82,3-2,4.14-4.87a9.07,9.07,0,0,0,.53-3.6c-.09-5.06,4.36-12.56,7.3-14,12.22-6.07,44.11,14.56,40.31,34.17-2,10.38-13.79,19.43-26.28,19.87-.92,0-15.68.3-23.66-11.4-1.41-2.05-4.83-6.74-4.39-13.14a17.69,17.69,0,0,1,2-7" transform="translate(-152.6 -153.16)"/></svg>