<?xml version="1.0" encoding="utf-8"?>
<!-- Generator: Adobe Illustrator 25.0.1, SVG Export Plug-In . SVG Version: 6.00 Build 0)  -->
<svg version="1.1" id="Layer_1" xmlns="http://www.w3.org/2000/svg" xmlns:xlink="http://www.w3.org/1999/xlink" x="0px" y="0px"
	 viewBox="0 0 1866.5 370" style="enable-background:new 0 0 1866.5 370;" xml:space="preserve">
<style type="text/css">
    .cls-1{fill:#735fd7;}
    .cls-2{fill:#000000;}
</style>
<path class="cls-1" d="M160,370C71.8,370,0,298.2,0,210S71.8,50,160,50s160,71.8,160,160S248.3,370,160,370z M160,110c-55.2,0-100,44.8-100,100
	s44.8,100,100,100s100-44.8,100-100C259.9,154.8,215.2,110.1,160,110z"/>
<circle class="cls-1" cx="330" cy="40" r="40"/>
<g class="cls-2">
	<path d="M543.7,252.3h-61.3l-10.6,29.2h-35.4l60.4-154h31.5l62.3,154h-36.2L543.7,252.3z M492.8,223.3h40.4l-20.3-55.1L492.8,223.3
		z"/>
</g>
<g class="cls-2">
	<path d="M672.3,252.9v28.6h-22.8c-26.1,0-42.2-16.1-42.2-42.4v-50.6h-21.5v-6.9l46.9-49.9h6.1v31h32.8v25.8h-32.2v46.3
		c0,11.5,6.6,18.1,18.3,18.1H672.3z"/>
</g>
<path class="cls-2" d="M685.3,222.1c0-36,27.4-62.8,64.2-62.8c36.6,0,64.2,26.8,64.2,62.8c0,35.8-27.6,62.8-64.2,62.8
	C712.7,284.9,685.3,258,685.3,222.1z M781.2,222.1c0-19.2-13.1-32.6-31.7-32.6c-18.5,0-31.7,13.3-31.7,32.6
	c0,19.2,13.1,32.6,31.7,32.6C768,254.7,781.2,241.4,781.2,222.1z"/>
<path class="cls-2" d="M1013.8,207v74.5h-32.1v-69.2c0-15.9-6.2-24.2-17.9-24.2c-14.3,0-22.8,10.6-22.8,29.2v64.3h-31.3v-69.2
	c0-15.9-6-24.2-17.5-24.2c-14.5,0-23.2,10.6-23.2,29.2v64.3h-32.1V162.7h22.4l6,14.7c8.4-10.6,21.4-17.5,35.4-17.5
	c15.1,0,27.6,7.1,34.5,19c8.1-11.5,21.7-19,36.8-19C996.5,159.9,1013.8,179.2,1013.8,207z"/>
<path class="cls-2" d="M1043.1,162.7h32.1v118.8h-32.1V162.7z M1043.2,117h32v29.9h-32V117z"/>
<g class="cls-2">
	<path d="M1193.4,252v29.5h-98.2V278l50.7-86.1h-45.8v-29.1h93.3v4.4l-50,84.9H1193.4z"/>
</g>
<g class="cls-2">
	<path class="cls-2" d="M1329.6,221.7c0,3.1-0.2,6.3-0.6,9.4h-89.9c2.8,16.2,13.5,25.1,29,25.1c11.2,0,20.3-5.3,25.2-13.8h33.8
		c-8.6,25.9-31.4,42.4-59,42.4c-35.1,0-61.6-27.2-61.6-62.8c0-35.8,26.4-62.8,61.6-62.8C1304.6,159.4,1329.6,187.5,1329.6,221.7
		L1329.6,221.7z M1239.9,209.2h57.6c-4.5-14.5-15-22.4-29.4-22.4C1253.8,186.8,1243.6,195.1,1239.9,209.2z"/>
	<path class="cls-2" d="M1425.3,284.9c-45.2,0-79.5-34.7-79.5-80.1c0-45.8,34.3-80.5,79.5-80.5c37.5,0,67.4,24.8,74.5,61.3h-33.4
		c-6.3-18.2-21.7-29.5-41.1-29.5c-26.1,0-45.8,21-45.8,48.7c0,27.7,19.7,48.3,45.8,48.3c20.3,0,35.9-12.2,41.4-31.7h33.6
		C1493.3,259.4,1463.4,284.9,1425.3,284.9L1425.3,284.9z"/>
	<path class="cls-2" d="M1578.9,229h-21.4v52.6h-33.3v-154h62.2c30.8,0,53.8,21.2,53.8,50.9c0,20.1-11,36.6-28.1,44.8l34.1,58.2H1609L1578.9,229z
		 M1557.6,198.2h26.7c13.9,0,22.3-8.4,22.3-19.9c0-11.5-8.3-19.9-22.3-19.9h-26.7V198.2z"/>
	<path class="cls-2" d="M1824.4,281.5L1809.3,181l-45.9,100.2h-8.2l-45.9-100.2L1694,281.5h-33.9l24.1-154h33.4l41.6,94.4l41.9-94.4h33.5l23.9,154
		H1824.4z"/>
</g>
</svg>
